<?xml version="1.0" encoding="UTF-8"?>
<svg xmlns="http://www.w3.org/2000/svg" xmlns:xlink="http://www.w3.org/1999/xlink" viewBox="0 0 1024 1024">
  <defs>
    <filter id="b" data-name="drop-shadow-1" filterUnits="userSpaceOnUse">
      <feOffset dx="0" dy="5"/>
      <feGaussianBlur result="c" stdDeviation="10"/>
      <feFlood flood-color="#000" flood-opacity=".5"/>
      <feComposite in2="c" operator="in"/>
      <feComposite in="SourceGraphic"/>
    </filter>
    <filter id="e" data-name="drop-shadow-2" filterUnits="userSpaceOnUse">
      <feOffset dx="-5" dy="15"/>
      <feGaussianBlur result="f" stdDeviation="10"/>
      <feFlood flood-color="#000" flood-opacity=".3"/>
      <feComposite in2="f" operator="in"/>
      <feComposite in="SourceGraphic"/>
    </filter>
  </defs>
  <g id="a" data-name="Pocket">
    <path d="M0,192H1024V831c0,105.97-86.03,192-192,192H192C86.03,1023,0,936.97,0,831V192H0Z" style="fill: #103f91; filter: url(#b);"/>
    <path d="M0,192H1024v426c0,105.97-86.03,192-192,192H192C86.03,810,0,723.97,0,618V192H0Z" style="fill: #185abd;"/>
    <path d="M0,192H1024v213c0,105.97-86.03,192-192,192H192C86.03,597,0,510.97,0,405V192H0Z" style="fill: #2b7cd3;"/>
    <rect y="0" width="1024" height="384" rx="192" ry="192" style="fill: #41a5ee;"/>
  </g>
  <g id="d" data-name="Key">
    <path d="M740.16,768.26c3.17-13.07,9.66-57.92,9.66-57.92l-196.98-264.43-.04,.03c33.94-38.88,36.85-97.56,4.08-139.95l-42.38-54.82c-37.27-48.21-106.55-57.07-154.76-19.81l-61.47,47.52c-48.21,37.27-57.07,106.55-19.81,154.76l42.38,54.82c32.76,42.37,90.26,54.35,136.43,31.31l39.66,51.3c.05,.06,.09,.12,.13,.18,.85,1.24,12.01,16.52,40.77,10.85,29.96-5.9,14.27,16.74,14.11,18.25s-4.16,15.23-3.9,19c.22,3.14-6.95,13.34,19.2,19.68,26.15,6.34,25.77,9.29,21.77,23.01-4,13.72-3.36,14.55,4.99,25.35,14.13,18.28,6.24,9.78,27.96,15.56,21.73,5.78,23.2,5.97,18.44,25.58-4.76,19.61-3.93,18.97,6.54,30.79s11.11,12.66,11.11,12.66l69.45,7.39s9.48,1.96,12.66-11.11ZM342.54,354.21c-16.85-21.8-12.84-53.14,8.96-70,21.8-16.85,53.14-12.84,70,8.96,16.85,21.8,12.84,53.14-8.96,70-21.8,16.85-53.14,12.84-70-8.96Z" style="fill: #fff; filter: url(#e);"/>
  </g>
</svg>